<svg width="99" height="20" viewBox="0 0 99 20" fill="none" xmlns="http://www.w3.org/2000/svg">
<path d="M6.81172 1.96177L0 15.5852H15.2921V12.0899H5.94694L9.95195 3.47651C10.3306 2.6622 10.0287 1.69348 9.25448 1.23843C8.38435 0.727005 7.26309 1.05903 6.81172 1.96177Z" fill="#23FF62"/>
<path d="M18.3634 15.5852V4.43532H20.9918V15.5852H18.3634ZM19.6981 2.85421C18.8768 2.85421 18.1786 2.21766 18.1786 1.41684C18.1786 0.63655 18.8768 0 19.6981 0C20.54 0 21.2177 0.63655 21.2177 1.41684C21.2177 2.21766 20.54 2.85421 19.6981 2.85421Z" fill="white"/>
<path d="M26.1253 0.718686V15.5852H23.4969V0.718686H26.1253Z" fill="white"/>
<path d="M33.579 15.8111C30.2115 15.8111 28.1581 13.5729 28.1581 10.0821C28.1581 6.63244 30.2526 4.29158 33.4353 4.29158C36.1663 4.29158 38.5277 5.99589 38.5277 9.91786V10.7392H30.7454C30.7762 12.6386 31.8953 13.7577 33.5996 13.7577C34.7495 13.7577 35.5298 13.2649 35.8583 12.6078H38.425C37.9528 14.538 36.1663 15.8111 33.579 15.8111ZM30.7659 8.95277H36.0226C36.002 7.43326 34.9959 6.32444 33.4764 6.32444C31.8953 6.32444 30.848 7.52567 30.7659 8.95277Z" fill="white"/>
<path d="M45.4271 15.8111C42.1827 15.8111 40.0883 13.5113 40.0883 10.0616C40.0883 6.59138 42.1827 4.29158 45.4271 4.29158C48.692 4.29158 50.7659 6.59138 50.7659 10.0616C50.7659 13.5113 48.692 15.8111 45.4271 15.8111ZM45.4476 13.7166C47.2341 13.7166 48.117 12.0945 48.117 10.0411C48.117 8.00821 47.2341 6.3655 45.4476 6.3655C43.6201 6.3655 42.7372 8.00821 42.7372 10.0411C42.7372 12.0945 43.6201 13.7166 45.4476 13.7166Z" fill="white"/>
<path d="M55.4271 9.05544V15.5852H52.7988V4.43532H55.3039V6.32444H55.4476C55.961 5.07187 57.0903 4.29158 58.7536 4.29158C61.0739 4.29158 62.5934 5.81109 62.5729 8.48049V15.5852H59.9651V8.89117C59.9651 7.3922 59.1643 6.50924 57.7885 6.50924C56.3922 6.50924 55.4271 7.43327 55.4271 9.05544Z" fill="white"/>
<path d="M64.5647 12.4435C64.5647 9.9384 66.6386 9.19918 68.7125 9.07598C69.4825 9.02464 71.0842 8.93224 71.5667 8.9117V8.02875C71.5667 6.91992 70.848 6.28337 69.5544 6.28337C68.384 6.28337 67.6653 6.81725 67.46 7.61807H64.9343C65.1191 5.72895 66.8234 4.29158 69.616 4.29158C71.731 4.29158 74.1745 5.154 74.1745 8.13142V15.5852H71.6694V14.0452H71.5873C71.0945 14.9897 70.0472 15.8111 68.3018 15.8111C66.1663 15.8111 64.5647 14.6407 64.5647 12.4435ZM67.0903 12.423C67.0903 13.3881 67.8706 13.8809 68.9795 13.8809C70.5606 13.8809 71.5873 12.8337 71.5873 11.5811V10.6571L69.1232 10.8214C67.8706 10.924 67.0903 11.4374 67.0903 12.423Z" fill="white"/>
<path d="M79.2669 9.05544V15.5852H76.6386V4.43532H79.1437V6.32444H79.2875C79.8008 5.07187 80.9302 4.29158 82.5934 4.29158C84.9138 4.29158 86.4333 5.81109 86.4127 8.48049V15.5852H83.8049V8.89117C83.8049 7.3922 83.0041 6.50924 81.6283 6.50924C80.232 6.50924 79.2669 7.43327 79.2669 9.05544Z" fill="white"/>
<path d="M93.7844 20C90.8275 20 88.9589 18.6858 88.7741 16.5914H91.3819C91.5667 17.5565 92.4908 18.0287 93.8255 18.0287C95.386 18.0287 96.4127 17.3511 96.4127 15.7084V13.5729H96.2895C95.8788 14.3942 94.9959 15.4209 93.0657 15.4209C90.499 15.4209 88.4661 13.5524 88.4661 9.91786C88.4661 6.2423 90.499 4.29158 93.0862 4.29158C95.0575 4.29158 95.8788 5.46201 96.2895 6.26283H96.4127V4.43532H99V15.77C99 18.6242 96.8029 20 93.7844 20ZM93.7844 13.3676C95.4682 13.3676 96.4333 12.0945 96.4333 9.95893C96.4333 7.84394 95.4887 6.4271 93.7844 6.4271C92.039 6.4271 91.1355 7.92608 91.1355 9.95893C91.1355 12.0123 92.0595 13.3676 93.7844 13.3676Z" fill="white"/>
</svg>
