<svg width="292" height="59" viewBox="0 0 292 59" fill="none" xmlns="http://www.w3.org/2000/svg">
<path d="M20.0911 5.78722L0 45.9764H45.1041V35.6651H17.5405L29.3532 10.2557C30.47 7.85348 29.5796 4.99576 27.2961 3.65336C24.7296 2.14467 21.4225 3.12414 20.0911 5.78722Z" fill="#23FF62"/>
<path d="M54.1629 45.9764V13.0842H61.9152V45.9764H54.1629ZM58.0996 8.41992C55.677 8.41992 53.6178 6.54209 53.6178 4.17967C53.6178 1.87782 55.677 0 58.0996 0C60.5827 0 62.5814 1.87782 62.5814 4.17967C62.5814 6.54209 60.5827 8.41992 58.0996 8.41992Z" fill="white"/>
<path d="M77.0563 2.12012V45.9764H69.304V2.12012H77.0563Z" fill="white"/>
<path d="M99.0412 46.6427C89.1086 46.6427 83.0522 40.04 83.0522 29.7423C83.0522 19.5657 89.2298 12.6602 98.6173 12.6602C106.672 12.6602 113.637 17.6879 113.637 29.2577V31.6807H90.6833C90.7742 37.2839 94.0749 40.5852 99.1018 40.5852C102.493 40.5852 104.795 39.1314 105.764 37.193H113.334C111.941 42.8871 106.672 46.6427 99.0412 46.6427ZM90.7439 26.4107H106.248C106.188 21.9281 103.22 18.6571 98.7384 18.6571C94.0749 18.6571 90.9861 22.2007 90.7439 26.4107Z" fill="white"/>
<path d="M133.987 46.6427C124.418 46.6427 118.24 39.8583 118.24 29.6817C118.24 19.4446 124.418 12.6602 133.987 12.6602C143.617 12.6602 149.734 19.4446 149.734 29.6817C149.734 39.8583 143.617 46.6427 133.987 46.6427ZM134.048 40.4641C139.317 40.4641 141.921 35.6786 141.921 29.6212C141.921 23.6242 139.317 18.7782 134.048 18.7782C128.657 18.7782 126.053 23.6242 126.053 29.6212C126.053 35.6786 128.657 40.4641 134.048 40.4641Z" fill="white"/>
<path d="M163.482 26.7136V45.9764H155.73V13.0842H163.119V18.6571H163.543C165.057 14.962 168.388 12.6602 173.293 12.6602C180.137 12.6602 184.619 17.1427 184.558 25.0175V45.9764H176.867V26.229C176.867 21.807 174.505 19.2023 170.447 19.2023C166.328 19.2023 163.482 21.9281 163.482 26.7136Z" fill="white"/>
<path d="M233.797 26.7136V45.9764H226.045V13.0842H233.434V18.6571H233.858C235.372 14.962 238.703 12.6602 243.609 12.6602C250.453 12.6602 254.934 17.1427 254.874 25.0175V45.9764H247.182V26.229C247.182 21.807 244.82 19.2023 240.762 19.2023C236.644 19.2023 233.797 21.9281 233.797 26.7136Z" fill="white"/>
<path d="M276.617 59C267.895 59 262.384 55.1232 261.839 48.9446H269.531C270.076 51.7916 272.801 53.1848 276.738 53.1848C281.341 53.1848 284.369 51.1858 284.369 46.3398V40.04H284.005C282.794 42.463 280.19 45.4918 274.497 45.4918C266.926 45.4918 260.93 39.9795 260.93 29.2577C260.93 18.4148 266.926 12.6602 274.557 12.6602C280.372 12.6602 282.794 16.1129 284.005 18.4754H284.369V13.0842H292V46.5216C292 54.9415 285.52 59 276.617 59ZM276.617 39.4343C281.583 39.4343 284.429 35.6786 284.429 29.3788C284.429 23.1396 281.643 18.96 276.617 18.96C271.469 18.96 268.804 23.3819 268.804 29.3788C268.804 35.4363 271.529 39.4343 276.617 39.4343Z" fill="white"/>
<path d="M204.456 46C196.013 46 190 39.1393 190 29.5343C190 19.9293 196.013 13.0686 204.456 13.0686C207.463 13.0686 210.789 14.578 213.22 17.6653V13H220V45.7256H213.22V41.3347C210.789 44.6279 207.463 46 204.456 46ZM196.78 29.5343C196.78 35.7089 200.043 39.8254 204.904 39.8254C209.382 39.8254 213.22 35.5031 213.284 29.5343C213.22 23.5655 209.382 19.2432 204.904 19.2432C200.043 19.2432 196.78 23.2911 196.78 29.5343Z" fill="white"/>
</svg>
